<svg xmlns="http://www.w3.org/2000/svg" style="display: none;">

<symbol id="sun" viewBox="0 0 26 27">
    <path d="M12.5654 23.1309C12.8416 23.1309 13.0654 23.3547 13.0654 23.6309V25.6309C13.065 25.9066 12.8413 26.1309 12.5654 26.1309C12.2899 26.1305 12.0658 25.9064 12.0654 25.6309V23.6309C12.0654 23.355 12.2896 23.1312 12.5654 23.1309ZM5.69727 20.4805C5.89253 20.2852 6.20903 20.2852 6.4043 20.4805C6.59946 20.6757 6.59953 20.9923 6.4043 21.1875L4.4043 23.1875C4.20904 23.3824 3.89242 23.3825 3.69727 23.1875C3.50212 22.9924 3.50236 22.6758 3.69727 22.4805L5.69727 20.4805ZM20.2539 20.4805C20.4492 20.2852 20.7657 20.2852 20.9609 20.4805L22.9609 22.4805C23.1561 22.6757 23.1562 22.9923 22.9609 23.1875C22.7657 23.3821 22.449 23.3825 22.2539 23.1875L20.2539 21.1875C20.0588 20.9924 20.0592 20.6758 20.2539 20.4805ZM12.5 7.5C15.8135 7.50013 18.4998 10.1865 18.5 13.5C18.4998 16.8135 15.8135 19.4999 12.5 19.5C9.18652 19.4999 6.50018 16.8135 6.5 13.5C6.50018 10.1865 9.18652 7.50014 12.5 7.5ZM12.5 8.5C9.73881 8.50014 7.50018 10.7388 7.5 13.5C7.50018 16.2612 9.73881 18.4999 12.5 18.5C15.2612 18.4999 17.4998 16.2612 17.5 13.5C17.4998 10.7388 15.2612 8.50013 12.5 8.5ZM2.52344 12.292C2.79943 12.292 3.02319 12.5161 3.02344 12.792C3.02325 13.068 2.79947 13.292 2.52344 13.292H0.523438C0.247637 13.2917 0.0236206 13.0678 0.0234375 12.792C0.0236804 12.5162 0.247674 12.2923 0.523438 12.292H2.52344ZM25.4043 12.292C25.6801 12.2922 25.9041 12.5162 25.9043 12.792C25.9041 13.0678 25.6801 13.2918 25.4043 13.292H23.4043C23.1284 13.2919 22.9045 13.0679 22.9043 12.792C22.9045 12.5161 23.1284 12.2921 23.4043 12.292H25.4043ZM20.7256 3.9248C20.9208 3.72954 21.2374 3.72954 21.4326 3.9248C21.6278 4.12007 21.6279 4.43659 21.4326 4.63184L19.4326 6.63184C19.2373 6.8267 18.9207 6.82693 18.7256 6.63184C18.5305 6.4367 18.5307 6.1201 18.7256 5.9248L20.7256 3.9248ZM3.69727 3.92383C3.89255 3.72886 4.20913 3.72866 4.4043 3.92383L6.4043 5.92383C6.59922 6.11901 6.59919 6.43565 6.4043 6.63086C6.20909 6.82574 5.89245 6.82578 5.69727 6.63086L3.69727 4.63086C3.5021 4.4357 3.5023 4.11911 3.69727 3.92383ZM12.5654 0.5C12.8415 0.5 13.0652 0.724012 13.0654 1V3C13.0652 3.27599 12.8415 3.5 12.5654 3.5C12.2897 3.49962 12.0656 3.27575 12.0654 3V1C12.0656 0.724249 12.2897 0.500385 12.5654 0.5Z"/>
</symbol>

<symbol id="moon" viewBox="0 0 11 11">
    <path d="M3.50586 3.62207C3.50587 2.54645 4.00961 1.58876 4.79297 0.97168C2.63173 1.19989 0.947266 3.02827 0.947266 5.25C0.947266 7.62609 2.87389 9.55273 5.25 9.55273C7.47201 9.55273 9.29953 7.8677 9.52734 5.70605C8.91025 6.48948 7.9536 6.99413 6.87793 6.99414C5.01556 6.99414 3.50586 5.48444 3.50586 3.62207ZM4.20312 3.62207C4.20312 5.09909 5.40091 6.29688 6.87793 6.29688C7.84918 6.29687 8.70007 5.77888 9.16895 5.00293L9.22656 4.92285C9.37359 4.75181 9.59423 4.69762 9.77246 4.72168C9.98409 4.75024 10.25 4.9167 10.25 5.25C10.25 8.01144 8.01144 10.25 5.25 10.25C2.48858 10.25 0.25 8.01144 0.25 5.25C0.25 2.48858 2.48858 0.25 5.25 0.25C5.5833 0.25 5.74976 0.515906 5.77832 0.727539C5.80579 0.931059 5.73094 1.18966 5.49707 1.33105C4.72112 1.79995 4.20313 2.65083 4.20312 3.62207Z"/>
</symbol>

<symbol id="profile" viewBox="0 0 101 101">
    <path d="M50.1299 0.742188C77.235 0.742378 100.13 23.6374 100.13 50.7422C100.13 66.6922 92.17 81.1323 80.1299 90.3623V90.7422H79.6201C71.2801 96.9671 61.0649 100.742 50.1299 100.742C39.1948 100.742 28.9797 96.9671 20.6396 90.7422H20.1289V90.3623C8.0889 81.1323 0.128906 66.6871 0.128906 50.7422C0.129095 23.6373 23.0246 0.742188 50.1299 0.742188ZM45.1299 73.6074C41.7163 73.6134 38.4067 74.7832 35.7471 76.9229C33.0874 79.0626 31.2359 82.0449 30.499 85.3779C36.3391 88.7629 43.0498 90.7422 50.1299 90.7422C57.2098 90.7421 63.9198 88.7628 69.7598 85.3779C69.0221 82.0454 67.1711 79.0634 64.5117 76.9238C61.8523 74.7843 58.5431 73.6143 55.1299 73.6074H45.1299ZM50.1299 10.7422C28.4447 10.7422 10.1291 29.0573 10.1289 50.7422C10.1289 61.6221 14.7441 71.6523 22.0791 78.9473C23.9864 74.4067 27.191 70.5293 31.291 67.8008C35.391 65.0723 40.205 63.6136 45.1299 63.6074H55.1299C60.0548 63.6137 64.8688 65.0722 68.9688 67.8008C73.0687 70.5293 76.2724 74.4068 78.1797 78.9473C85.5148 71.6523 90.1299 61.6222 90.1299 50.7422C90.1297 29.0574 71.8149 10.7424 50.1299 10.7422ZM50.1299 20.7422C61.5298 20.7423 70.1297 29.3424 70.1299 40.7422C70.1299 52.1421 61.5299 60.7421 50.1299 60.7422C38.7297 60.7422 30.1299 52.1422 30.1299 40.7422C30.1301 29.3424 38.7299 20.7422 50.1299 20.7422ZM50.1299 30.7422C44.2399 30.7422 40.1301 34.8524 40.1299 40.7422C40.1299 46.6322 44.2398 50.7422 50.1299 50.7422C56.0198 50.7421 60.1299 46.6321 60.1299 40.7422C60.1297 34.8525 56.0197 30.7423 50.1299 30.7422Z"/>
</symbol>

<symbol id="bookmarks" viewBox="0 0 101 81">
    <path d="M72.9572 0.742027C80.7636 0.742027 87.321 3.06087 92.6293 7.69855C97.9377 12.3362 100.592 17.9969 100.592 24.6806C100.592 27.9543 99.8112 31.2621 98.2499 34.6039C96.6887 37.9458 94.9713 40.9125 93.0977 43.5042C91.2242 46.0958 88.0626 49.4377 83.6129 53.5298C79.1633 57.6218 75.4162 60.9296 72.3717 63.453C69.3272 65.9765 64.4482 69.8298 57.7347 75.0131L50.4748 80.742L43.2148 75.2177C36.6574 69.898 31.8175 65.9765 28.6949 63.453C25.5723 60.9296 21.7862 57.6218 17.3366 53.5298C12.8869 49.4377 9.72535 46.0958 7.85181 43.5042C5.97827 40.9125 4.2999 37.9458 2.81668 34.6039C1.33347 31.2621 0.591858 27.9543 0.591858 24.6806C0.591858 17.9969 3.24603 12.3362 8.55439 7.69855C13.8627 3.06087 20.3421 0.742027 27.9923 0.742027C37.0478 0.742027 44.5419 3.81108 50.4748 9.94919C56.4076 3.81108 63.9018 0.742027 72.9572 0.742027ZM50.9431 68.6704C58.5934 62.6687 64.175 58.2015 67.6879 55.2689C71.2008 52.3362 75.0649 48.8239 79.2804 44.7318C83.4958 40.6397 86.4232 37.0592 88.0626 33.9901C89.7019 30.9211 90.5216 27.8179 90.5216 24.6806C90.5216 20.3158 88.8432 16.7011 85.4865 13.8367C82.1297 10.9722 77.9533 9.53998 72.9572 9.53998C69.2101 9.53998 65.6582 10.4948 62.3015 12.4044C58.9447 14.3141 56.5638 16.7693 55.1586 19.7702H45.7909C44.5419 16.7693 42.239 14.3141 38.8823 12.4044C35.5255 10.4948 31.8955 9.53998 27.9923 9.53998C22.9962 9.53998 18.8588 10.9722 15.5801 13.8367C12.3015 16.7011 10.6621 20.3158 10.6621 24.6806C10.6621 27.8179 11.4428 30.9211 13.004 33.9901C14.5653 37.0592 17.4927 40.6397 21.7862 44.7318C26.0798 48.8239 29.983 52.3362 33.4958 55.2689C37.0087 58.2015 42.5122 62.6687 50.0064 68.6704L50.4748 69.0796L50.9431 68.6704Z"/>
</symbol>

<symbol id="cart" viewBox="0 0 102 84">
    <path d="M39.0625 66.418C43.1799 66.6006 47.8229 69.6063 47.8232 74.9043C47.8232 80.3735 42.8758 83.3994 38.666 83.3994C34.4562 83.3994 29.5088 80.3735 29.5088 74.9043C29.5091 69.4354 34.4564 66.4092 38.666 66.4092L39.0625 66.418ZM84.792 66.418C88.9093 66.6008 93.5524 69.6065 93.5527 74.9043C93.5527 80.3733 88.6052 83.3992 84.3955 83.3994C80.1857 83.3994 75.2383 80.3735 75.2383 74.9043C75.2386 69.4354 80.1859 66.4092 84.3955 66.4092L84.792 66.418ZM38.666 73.3994C38.6929 73.3994 38.5784 73.3886 38.3877 73.5488C38.1859 73.7185 37.8234 74.1784 37.8232 74.9043L37.8271 75.0371C37.8676 75.6864 38.1984 76.1004 38.3877 76.2598C38.541 76.3886 38.645 76.407 38.666 76.4092C38.6874 76.4069 38.7914 76.3883 38.9443 76.2598C39.1463 76.0897 39.5088 75.63 39.5088 74.9043C39.5086 74.1785 39.1461 73.7186 38.9443 73.5488C38.8486 73.4684 38.7717 73.4312 38.7227 73.4141L38.666 73.3994ZM84.3955 73.3994C84.4207 73.3993 84.3067 73.3897 84.1172 73.5488C83.9154 73.7185 83.5529 74.1784 83.5527 74.9043L83.5566 75.0371C83.5971 75.6867 83.9279 76.1005 84.1172 76.2598C84.2715 76.3895 84.3755 76.4072 84.3955 76.4092C84.4178 76.4067 84.5219 76.3875 84.6738 76.2598C84.8758 76.0896 85.2383 75.6297 85.2383 74.9043C85.2381 74.1785 84.8756 73.7186 84.6738 73.5488C84.5782 73.4684 84.5012 73.4313 84.4521 73.4141L84.3955 73.3994ZM22.2529 0.00488281C24.4763 0.100209 26.3817 1.66008 26.9014 3.8418L30.1465 17.4766H96.8662C98.3864 17.4766 99.8247 18.1687 100.773 19.3564C101.722 20.5443 102.078 22.0996 101.742 23.582L95.0908 52.9072C95.0876 52.9215 95.0835 52.9359 95.0801 52.9502C94.379 55.9179 92.5102 58.3773 90.0752 60.0254C87.6726 61.6514 84.7824 62.4575 81.9004 62.4268V62.4287H41.4922V62.4268C38.6103 62.4575 35.7199 61.6513 33.3174 60.0254C30.8849 58.3789 29.0171 55.9227 28.3145 52.959L21.3721 23.8008C21.3412 23.6882 21.314 23.5736 21.291 23.458L18.0879 10H5.4082C2.64693 9.99983 0.408203 7.76132 0.408203 5C0.408447 2.23889 2.64708 0.000172372 5.4082 0H22.0371L22.2529 0.00488281ZM38.042 50.6436L38.0439 50.6514C38.1031 50.902 38.3172 51.3347 38.9219 51.7441C39.5367 52.1603 40.4193 52.4446 41.4121 52.4287H81.9805C82.9735 52.4447 83.8558 52.1603 84.4707 51.7441C85.067 51.3405 85.2819 50.9143 85.3447 50.6621L90.6055 27.4766H32.5273L38.042 50.6436Z"/>
</symbol>

<symbol id='telegram' viewBox="0 0 333334 333334" shape-rendering="geometricPrecision" text-rendering="geometricPrecision" image-rendering="optimizeQuality" fill-rule="evenodd" clip-rule="evenodd">
    <path d="M166667 0c92048 0 166667 74619 166667 166667s-74619 166667-166667 166667S0 258715 0 166667 74619 0 166667 0zm80219 91205l-29735 149919s-4158 10396-15594 5404l-68410-53854s76104-68409 79222-71320c3119-2911 2079-3534 2079-3534 207-3535-5614 0-5614 0l-100846 64043-42002-14140s-6446-2288-7069-7277c-624-4992 7277-7694 7277-7694l166970-65498s13722-6030 13722 3951zm-87637 122889l-27141 24745s-2122 1609-4443 601l5197-45965 26387 20619z"/>
</symbol>

<symbol id='viber' viewBox="0 0 80 84">
    <path d="M8.33203 8.56425C19.0487 -1.26491 41.0283 0.0593719 41.0283 0.0593719C59.6697 0.142784 68.0405 6.21843 70.1113 8.12675C76.9862 14.0893 80.7903 27.3146 78.2236 48.2186C75.7443 68.4971 60.4658 70.4559 57.7656 71.3309C56.599 71.7142 46.3154 74.285 32.9404 73.16C31.4654 74.8766 29.5067 77.1181 28.0859 78.6473C25.5027 81.4305 23.9192 84.0143 21.2109 83.1727C18.9775 82.482 19.0982 79.0964 19.0986 79.0848L19.1113 70.6893H19.0908C-0.459169 65.1893 -0.172005 44.9056 0.0488281 34.0848C0.269659 23.2599 2.3697 14.5309 8.33203 8.56425ZM40.6816 5.94316C40.5745 5.9362 21.9895 4.74192 12.9531 12.9266C7.90735 17.9098 6.20706 25.3137 6.01953 34.3553C5.83203 43.3928 4.86556 60.6601 21.4072 65.2518L21.3359 79.1971C21.3276 79.9845 21.4529 80.522 21.9111 80.6346C22.2361 80.7179 22.7193 80.5512 23.1318 80.1346C25.7697 77.4842 34.1897 67.3293 34.2402 67.2684C45.5976 68.01 54.6304 65.7638 55.6025 65.451C57.8859 64.7176 70.2778 63.6514 72.3779 46.7186L72.374 46.7137C74.5406 29.2513 71.5735 17.3347 65.7568 12.3514C64.0065 10.7637 56.4478 6.01399 40.6816 5.94316ZM23.0615 17.7391C24.5615 16.9558 25.9865 17.2224 26.9531 18.3641C26.9764 18.3862 28.973 20.7853 29.8281 21.9559C30.7157 23.2039 31.5405 24.4954 32.2988 25.826C33.2863 27.5967 32.67 29.4099 31.6992 30.16L29.7402 31.7137C28.7621 32.5061 28.8795 33.9693 28.8818 33.9969C28.8818 33.9969 31.7822 44.9678 42.6113 47.7303C42.6178 47.7308 44.0965 47.853 44.8906 46.8719L46.4492 44.9139C47.1993 43.9473 49.0074 43.331 50.7822 44.3143C52.1114 45.0728 53.4017 45.8974 54.6484 46.785C55.8208 47.6455 58.221 49.6508 58.2402 49.66C59.3902 50.6308 59.6574 52.0516 58.874 53.5516L58.8652 53.5848C58.0045 55.0772 56.9118 56.4232 55.6279 57.5721L55.5986 57.5936C54.4849 58.5239 53.3891 59.0526 52.3115 59.1805C52.1535 59.2092 51.9925 59.2203 51.832 59.2137C51.3582 59.2175 50.8869 59.1442 50.4365 58.9969L50.3984 58.9471C48.7401 58.4762 45.9735 57.305 41.3613 54.7635C38.6937 53.3086 36.1539 51.6304 33.7695 49.7469C32.5737 48.8034 31.4324 47.7927 30.3525 46.7186L30.2402 46.6053L30.124 46.4891L30.0068 46.3768L29.8945 46.2596C28.8204 45.1797 27.8087 44.0393 26.8652 42.8436C24.982 40.4591 23.3038 37.9192 21.8486 35.2518C19.307 30.6393 18.1359 27.8764 17.665 26.2098L17.6152 26.1766C17.4693 25.726 17.3982 25.2546 17.4033 24.7811C17.3948 24.6208 17.4037 24.4596 17.4316 24.3016C17.565 23.2266 18.0957 22.129 19.0234 21.0096L19.0449 20.9803C20.1934 19.6961 21.5395 18.6031 23.0322 17.743L23.0615 17.7391ZM38.9531 14.9178C45.0489 14.9595 50.2657 17.022 54.3906 21.0428C58.5531 25.1011 60.6529 30.6931 60.707 37.5848C60.7081 37.7235 60.6821 37.8615 60.6299 37.99C60.5777 38.1186 60.4999 38.2351 60.4023 38.3338C60.3049 38.4324 60.1894 38.5115 60.0615 38.5652C59.9336 38.619 59.796 38.6467 59.6572 38.6473C59.5188 38.6478 59.381 38.6206 59.2529 38.5682C59.125 38.5157 59.0083 38.439 58.9102 38.3416C58.812 38.2442 58.7341 38.1283 58.6807 38.0008C58.6272 37.8732 58.5992 37.7358 58.5986 37.5975C58.5486 31.1226 56.6448 26.1849 52.9199 22.5516C49.1616 18.8891 44.5739 17.0679 38.9365 17.0262C38.7981 17.0256 38.6609 16.9976 38.5332 16.9441C38.4056 16.8907 38.2898 16.8128 38.1924 16.7146C38.0949 16.6164 38.0173 16.5 37.9648 16.3719C37.9124 16.2439 37.8862 16.1068 37.8867 15.9686C37.8873 15.8295 37.9148 15.6914 37.9688 15.5633C38.0228 15.435 38.102 15.3181 38.2012 15.2205C38.3003 15.123 38.4179 15.0459 38.5469 14.9939C38.6759 14.9421 38.8141 14.9161 38.9531 14.9178ZM40.8818 20.3885H40.8867C45.3031 20.7094 48.899 22.2512 51.4697 25.0594C54.0155 27.8384 55.2524 31.3762 55.165 35.451C55.1574 35.7291 55.0402 35.9933 54.8389 36.1853C54.6376 36.3772 54.3688 36.4819 54.0908 36.4764C53.9524 36.4737 53.8153 36.444 53.6885 36.3885C53.5618 36.333 53.4475 36.2528 53.3516 36.1531C53.2556 36.0533 53.1793 35.9354 53.1289 35.8064C53.0785 35.6775 53.0539 35.5396 53.0566 35.4012C53.1358 31.7721 52.0983 28.8677 49.915 26.4803C47.7359 24.1055 44.7523 22.7888 40.7275 22.493C40.5895 22.4829 40.4547 22.4457 40.3311 22.3836C40.2074 22.3215 40.0973 22.2354 40.0068 22.1307C39.9163 22.0258 39.8472 21.9038 39.8037 21.7723C39.7603 21.6408 39.7427 21.5022 39.7529 21.3641C39.763 21.2259 39.8001 21.0904 39.8623 20.9666C39.9245 20.843 40.0105 20.7328 40.1152 20.6424C40.2201 20.5518 40.3421 20.4827 40.4736 20.4393C40.6051 20.3958 40.7438 20.3783 40.8818 20.3885ZM42.4609 26.0428C44.6401 26.1553 46.4655 26.8389 47.7363 28.1473C49.003 29.4639 49.6404 31.3268 49.7529 33.5643C49.7642 33.8416 49.6655 34.1121 49.4785 34.3172C49.2913 34.5224 49.0304 34.6459 48.7529 34.66C48.4747 34.6724 48.2032 34.5738 47.9971 34.3865C47.791 34.1992 47.6674 33.9381 47.6533 33.66C47.5575 31.7641 47.0486 30.4724 46.2236 29.6141C45.3903 28.7599 44.1653 28.247 42.3486 28.1512C42.0697 28.1361 41.8078 28.0113 41.6211 27.8035C41.4344 27.5957 41.3378 27.3217 41.3525 27.0428C41.3595 26.9044 41.3937 26.7685 41.4531 26.6434C41.5126 26.5182 41.5964 26.4061 41.6992 26.3133C41.8022 26.2204 41.923 26.1487 42.0537 26.1023C42.1843 26.0561 42.3226 26.0355 42.4609 26.0428Z"/>
</symbol>

<symbol id="mail" viewBox="0 0 122.88 85.57">
    <path d="M3.8,0,62.48,47.85,118.65,0ZM0,80.52,41.8,38.61,0,4.53v76ZM46.41,42.37,3.31,85.57h115.9L78,42.37,64.44,53.94h0a3,3,0,0,1-3.78.05L46.41,42.37Zm36.12-3.84,40.35,42.33V4.16L82.53,38.53Z"/>
</symbol>


</svg>